<svg fill="none" height="24" viewBox="0 0 24 24" width="24" xmlns="http://www.w3.org/2000/svg"><g clip-rule="evenodd" fill="#030d45" fill-rule="evenodd"><path d="m5.07692 5.92648c0-1.5374 1.26279-2.7837 2.82052-2.7837h4.10256c.4248 0 .7692.3399.7692.75919s-.3444.75919-.7692.75919h-4.10256c-.70806 0-1.28205.5665-1.28205 1.26532v1.01225c0 .41929-.3444.75919-.76924.75919-.42483 0-.76923-.3399-.76923-.75919zm.76923 10.37562c.42484 0 .76924.3399.76924.7592v1.0122c0 .6988.57399 1.2653 1.28205 1.2653h4.10256c.4248 0 .7692.34.7692.7592 0 .4193-.3444.7592-.7692.7592h-4.10256c-1.55773 0-2.82052-1.2463-2.82052-2.7837v-1.0122c0-.4193.3444-.7592.76923-.7592z"/><path d="m12.7692 4.78618c0-.88127.89-1.49263 1.7274-1.18656l5.1282 1.87454c.5029.18384.8367.65723.8367 1.18655v10.67859c0 .5293-.3338 1.0027-.8367 1.1865l-5.1282 1.8746c-.8374.3061-1.7274-.3053-1.7274-1.1866zm2.2617-2.61042c-1.8422-.67336-3.8001.67162-3.8001 2.61042v14.42762c0 1.9388 1.9579 3.2838 3.8001 2.6104l5.1282-1.8745c1.1065-.4045 1.8409-1.4459 1.8409-2.6104v-10.67859c0-1.16451-.7344-2.20596-1.8409-2.61041z"/><path d="m6.32787 9.43867c.3004-.29649.78745-.29649 1.08785 0l2.05129 2.02453c.3004.2965.3004.7771 0 1.0736l-2.05129 2.0245c-.3004.2965-.78745.2965-1.08785 0-.30041-.2964-.30041-.7771 0-1.0736l.73812-.7285h-4.29676c-.42483 0-.76923-.3399-.76923-.7592s.3444-.7592.76923-.7592h4.29676l-.73812-.7285c-.30041-.2965-.30041-.77715 0-1.07363z"/></g></svg>